# xmcd CD database file generated by Grip 2.96
# 
# Track frame offsets:
#       150
#       12977
#       22912
#       38535
#       50112
#       62187
#       75957
#       91847
#       102025
#       115632
#       134880
# 
# Disc length: 2020 seconds
# 
# Revision: 0
# Processed by: cddbd v1.4PL0 Copyright (c) Steve Scherf et al.
# Submitted via: Grip 2.96
# 
DISCID=8007e20b
DTITLE=Various Artist - Super Hits Goes To The Movies
DYEAR=1900
DGENRE=
TTITLE0=Johnny Horton - North To Alaska
TTITLE1=Ricky Van Shelton - Wear My Ring Around Your Neck
TTITLE2=Gibson/Miller Band - Mammas Don't Let Your Babies Grow Up To Be Cowboys
TTITLE3=Willie Nelson - On The Road Again
TTITLE4=Tammy Wynette - Stand By Your Man
TTITLE5=Willie Nelston - My Heroes Have Always Been Cowboys
TTITLE6=Mary Chapin Carpenter - I Feel Lucky
TTITLE7=Willie Nelson - What A Wonderful World
TTITLE8=Merle Haggard - Big City
TTITLE9=James House - Every Minute, Every Hour, Every Day
TTITLE10=Advertisement
EXTD=
EXTT0=
EXTT1=
EXTT2=
EXTT3=
EXTT4=
EXTT5=
EXTT6=
EXTT7=
EXTT8=
EXTT9=
EXTT10=
PLAYORDER=
